<svg version="1.1" xmlns="http://www.w3.org/2000/svg"><symbol viewBox="0 0 16 16" id="svg_social_menu_icon-dribbble"><title>Dribbble</title><path d="M8 15c-1.625 0-3.125-.5-4.25-1.5C4.875 11.375 7 9.75 9.25 9c1.125 2.5 1.5 4.25 1.625 5.375C10 14.75 9 15 8 15zm4-1.25c-.5-2.625-1.375-4.75-1.5-5 1.625-.25 3-.25 4.5 0-.25 2-1.375 3.875-3 5zM1 7.5c2.625.25 4.375 0 7.25-.875.25.5.5 1 .625 1.375-2.25.75-4.75 2.375-6.125 4.625C1.625 11.375 1 9.75 1 8v-.5zM13.75 4c.75 1 1.125 2.25 1.25 3.625-1.125-.25-3.25-.375-4.875 0-.25-.5-.375-.875-.75-1.375C10.875 5.5 12.5 5 13.75 4zm-8.5-2.5a27.89 27.89 0 0 1 2.5 4.125c-1.125.375-4.25 1-6.5.75.5-2.25 2-4 4-4.875zM8 1c2 0 3.75.875 5 2.125-1.125 1-3.125 1.625-4.125 2C8 3.625 7.5 2.75 6.5 1.125 7 1.125 7.5 1 8 1zm0-1C3.625 0 0 3.625 0 8s3.625 8 8 8 8-3.625 8-8-3.625-8-8-8z"/></symbol><symbol viewBox="0 0 16 16" id="svg_social_menu_icon-facebook"><title>Facebook</title><path d="M9.236 6.064V4.337c0-.65.137-1.043.988-1.043.789 0 1.512.005 1.512.005l.055-2.208S11.084 1 10.127 1C7.762 1 6.735 2.458 6.735 4.044v2.02H5v2.365h1.735V15h2.501V8.429h2.455l.113-2.365H9.236z"/></symbol><symbol viewBox="0 0 16 16" id="svg_social_menu_icon-feed"><title>RSS</title><path d="M2 6v2c3.309 0 6 2.691 6 6h2a8 8 0 0 0-8-8zm0-4v2c5.514 0 10 4.486 10 10h2C14 7.373 8.627 2 2 2zm1.5 9a1.5 1.5 0 1 0 0 3 1.5 1.5 0 0 0 0-3z"/></symbol><symbol viewBox="0 0 16 16" id="svg_social_menu_icon-flickr"><title>Flickr</title><path d="M11.5 4.75a3.25 3.25 0 1 0 0 6.5 3.25 3.25 0 1 0 0-6.5zm-7 0a3.25 3.25 0 1 0 0 6.5 3.25 3.25 0 0 0 0-6.5z"/></symbol><symbol viewBox="0 0 16 16" id="svg_social_menu_icon-github"><title>GitHub</title><path d="M8 0a8 8 0 0 0-2.529 15.591c.4.072.546-.174.546-.387 0-.189-.007-.693-.011-1.359-2.226.482-2.695-1.072-2.695-1.072-.364-.926-.888-1.172-.888-1.172-.727-.496.055-.486.055-.486.803.057 1.226.824 1.226.824.713 1.223 1.873.871 2.328.666.073-.518.279-.869.508-1.07-1.776-.201-3.644-.889-3.644-3.954 0-.873.312-1.587.824-2.146-.083-.203-.358-1.016.077-2.117 0 0 .672-.215 2.2.82A7.643 7.643 0 0 1 8 3.869c.68.003 1.364.091 2.003.269 1.527-1.035 2.198-.82 2.198-.82.437 1.101.162 1.915.08 2.117.512.559.821 1.273.821 2.146 0 3.073-1.87 3.75-3.652 3.948.287.246.543.734.543 1.482 0 1.068-.01 1.932-.01 2.193 0 .215.144.463.55.385A8.001 8.001 0 0 0 8 0z"/></symbol><symbol viewBox="0 0 16 16" id="svg_social_menu_icon-google-plus"><title>Google Plus</title><path d="M5.7 7v1.6h2.6c-.1.6-.8 1.9-2.6 1.9-1.6 0-2.9-1.3-2.9-2.9s1.3-2.9 2.9-2.9c1 0 1.5.4 1.8.6l1.2-1.2c-.7-.8-1.8-1.2-3-1.2-2.4 0-4.6 2.1-4.6 4.6s2.1 4.6 4.6 4.6c2.6 0 4.4-1.8 4.4-4.4 0-.4-.1-.7-.1-.7H5.7zM13 7V6h-1v1h-1v1h1v1h1V8h1V7h-1z"/></symbol><symbol viewBox="0 0 16 16" id="svg_social_menu_icon-instagram"><title>Instagram</title><path d="M13 1H3a2 2 0 0 0-2 2v10a2 2 0 0 0 2 2h10a2 2 0 0 0 2-2V3a2 2 0 0 0-2-2zM8 5a3 3 0 1 1 0 6 3 3 0 0 1 0-6zm6 8a1 1 0 0 1-1 1H3a1 1 0 0 1-1-1V7h2.142A3.926 3.926 0 0 0 4 8a4 4 0 0 0 8 0c0-.348-.059-.679-.142-1H14v6zm0-9a1 1 0 0 1-1 1h-1a1 1 0 0 1-1-1V3a1 1 0 0 1 1-1h1a1 1 0 0 1 1 1v1z"/></symbol><symbol viewBox="0 0 16 16" id="svg_social_menu_icon-linkedin"><title>LinkedIn</title><path d="M4.724 14H2.152V6.26h2.572V14zM3.438 5.204h-.016C2.559 5.204 2 4.609 2 3.867c0-.759.575-1.337 1.456-1.337.879 0 1.421.579 1.438 1.337 0 .742-.559 1.337-1.456 1.337zM14 14h-2.572V9.859c0-1.04-.37-1.75-1.302-1.75-.712 0-1.135.478-1.321.94-.067.166-.084.398-.084.629V14H6.148s.034-7.014 0-7.74h2.573v1.097c.342-.527.953-1.278 2.316-1.278C12.73 6.079 14 7.185 14 9.562V14z"/></symbol><symbol viewBox="0 0 16 16" id="svg_social_menu_icon-mail"><title>Mail</title><path d="M2 4v1l6 3 6-3V4H2zm0 2.5V12h12V6.5l-6 3-6-3z"/></symbol><symbol viewBox="0 0 16 16" id="svg_social_menu_icon-pinterest"><title>Pinterest</title><path d="M8.384 0C3.698 0 1.336 3.358 1.336 6.16c0 1.696.642 3.206 2.019 3.766.226.093.428.005.494-.245.045-.174.154-.611.201-.791.065-.248.041-.335-.143-.552-.396-.468-.65-1.073-.65-1.933 0-2.492 1.864-4.723 4.854-4.723 2.647 0 4.103 1.618 4.103 3.779 0 2.843-1.257 5.242-3.126 5.242-1.031 0-1.803-.853-1.556-1.897.295-1.25.871-2.599.871-3.5 0-.807-.433-1.48-1.33-1.48-1.054 0-1.902 1.092-1.902 2.553 0 .931.315 1.561.315 1.561l-1.268 5.373c-.177.749-.2 1.575-.172 2.265L5.21 16c.374-.591.783-1.351.993-2.111.122-.439.694-2.712.694-2.712.343.654 1.344 1.23 2.409 1.23 3.169 0 5.32-2.891 5.32-6.759C14.626 2.724 12.147 0 8.384 0z"/></symbol><symbol viewBox="0 0 16 16" id="svg_social_menu_icon-tumblr"><title>Tumblr</title><path d="M8.525 1v3.539h3.322v2.197H8.525v3.59c0 .812.043 1.333.13 1.564.085.229.246.413.479.551.31.186.663.279 1.062.279.708 0 1.413-.23 2.115-.691v2.208a8.47 8.47 0 0 1-1.625.593 6.906 6.906 0 0 1-1.572.17c-.64 0-1.206-.081-1.698-.242a3.648 3.648 0 0 1-1.258-.691c-.348-.299-.588-.617-.722-.954-.134-.337-.201-.825-.201-1.465V6.736H3.688V4.755a4.111 4.111 0 0 0 1.413-.769c.393-.333.707-.733.944-1.202.237-.467.4-1.061.49-1.784h1.99z"/></symbol><symbol viewBox="0 0 16 16" id="svg_social_menu_icon-twitter"><title>Twitter</title><path d="M15 3.627a5.705 5.705 0 0 1-1.649.452 2.879 2.879 0 0 0 1.262-1.589 5.75 5.75 0 0 1-1.822.697 2.872 2.872 0 0 0-4.895 2.619 8.157 8.157 0 0 1-5.921-3.001 2.865 2.865 0 0 0-.389 1.445c0 .996.506 1.875 1.277 2.39a2.869 2.869 0 0 1-1.301-.359v.037c0 1.392.989 2.552 2.304 2.816a2.897 2.897 0 0 1-1.297.049 2.872 2.872 0 0 0 2.683 1.993A5.758 5.758 0 0 1 1 12.365a8.118 8.118 0 0 0 4.402 1.291c5.284 0 8.174-4.377 8.174-8.172 0-.124-.004-.248-.01-.371A5.839 5.839 0 0 0 15 3.627z"/></symbol><symbol viewBox="0 0 16 16" id="svg_social_menu_icon-vimeo"><title>Vimeo</title><path d="M12.959 2.001c-1.939-.062-3.255 1.022-3.943 3.256.355-.15.701-.228 1.037-.228.712 0 1.025.397.942 1.189-.042.479-.356 1.178-.942 2.095-.588.917-1.028 1.376-1.321 1.376-.377 0-.723-.706-1.037-2.12-.106-.415-.294-1.475-.566-3.18-.252-1.579-.922-2.318-2.012-2.214-.461.042-1.153.457-2.074 1.246C2.372 4.023 1.691 4.625 1 5.227l.659.841c.627-.436.994-.653 1.099-.653.48 0 .93.747 1.349 2.239l1.13 4.106C5.8 13.253 6.491 14 7.307 14c1.317 0 2.928-1.227 4.831-3.678 1.841-2.348 2.793-4.196 2.855-5.547.083-1.807-.595-2.732-2.034-2.774z"/></symbol><symbol viewBox="0 0 16 16" id="svg_social_menu_icon-wordpress"><title>WordPress</title><path d="M8 1C4.14 1 1 4.14 1 8c0 3.859 3.14 7 7 7 3.859 0 7-3.141 7-7 0-3.86-3.141-7-7-7zM1.707 8c0-.913.196-1.779.545-2.562l3.002 8.226A6.293 6.293 0 0 1 1.707 8zM8 14.293c-.618 0-1.214-.09-1.778-.256l1.89-5.487 1.934 5.299a.559.559 0 0 0 .045.088A6.297 6.297 0 0 1 8 14.293zm.867-9.244c.38-.02.721-.06.721-.06.339-.04.299-.539-.04-.519 0 0-1.02.08-1.678.08-.619 0-1.658-.08-1.658-.08-.339-.02-.378.499-.04.519 0 0 .321.04.66.06l.98 2.687-1.377 4.13-2.29-6.817c.378-.02.72-.06.72-.06.338-.04.298-.539-.041-.519 0 0-1.019.08-1.677.08-.118 0-.257-.002-.405-.007A6.283 6.283 0 0 1 8 1.707a6.27 6.27 0 0 1 4.25 1.652c-.027-.002-.054-.005-.082-.005-.617 0-1.056.538-1.056 1.117 0 .519.299.958.617 1.477.239.418.519.957.519 1.735 0 .539-.206 1.164-.479 2.035l-.628 2.098-2.274-6.767zm4.655-.069a6.288 6.288 0 0 1-2.358 8.459l1.923-5.558c.358-.897.479-1.615.479-2.254a4.839 4.839 0 0 0-.044-.647z"/></symbol><symbol viewBox="0 0 16 16" id="svg_social_menu_icon-xing"><title>Xing</title><path d="M12.126 0c-.345 0-.494.217-.618.44 0 0-4.97 8.816-5.135 9.105.01.016 3.28 6.015 3.28 6.015.113.205.29.44.644.44H12.6c.14 0 .25-.052.308-.147.06-.1.06-.23-.005-.357L9.65 9.552c-.003-.004-.003-.01 0-.015L14.76.504c.063-.128.064-.258.004-.357-.06-.095-.168-.147-.307-.147h-2.33zM2.432 3.16c-.14 0-.256.05-.315.144-.06.1-.052.226.013.354l1.56 2.7c.003.006.003.01 0 .014L1.24 10.7c-.065.126-.062.254 0 .353.057.095.16.157.3.157h2.308c.345 0 .51-.232.63-.445l2.49-4.406-1.586-2.767c-.115-.205-.29-.433-.642-.433H2.432z"/></symbol><symbol viewBox="0 0 16 16" id="svg_social_menu_icon-youtube"><title>YouTube</title><path d="M12 3H4a3 3 0 0 0-3 3v4a3 3 0 0 0 3 3h8a3 3 0 0 0 3-3V6a3 3 0 0 0-3-3zm-6 8V5l5 3-5 3z"/></symbol></svg>