<svg version="1.1" xmlns="http://www.w3.org/2000/svg"><symbol viewBox="0 0 16 16" id="svg_social_menu_icon-dribbble"><title>Dribbble</title><path d="M8,15c-1.625,0-3.125-0.5-4.25-1.5C4.875,11.375,7,9.75,9.25,9c1.125,2.5,1.5,4.25,1.625,5.375C10,14.75,9,15,8,15zM12,13.75c-0.5-2.625-1.375-4.75-1.5-5c1.625-0.25,3-0.25,4.5,0C14.75,10.75,13.625,12.625,12,13.75z M1,7.5c2.625,0.25,4.375,0,7.25-0.875c0.25,0.5,0.5,1,0.625,1.375c-2.25,0.75-4.75,2.375-6.125,4.625C1.625,11.375,1,9.75,1,8C1,7.875,1,7.75,1,7.5z M13.75,4C14.5,5,14.875,6.25,15,7.625c-1.125-0.25-3.25-0.375-4.875,0c-0.25-0.5-0.375-0.875-0.75-1.375C10.875,5.5,12.5,5,13.75,4z M5.25,1.5c1,1.375,1.75,2.625,2.5,4.125c-1.125,0.375-4.25,1-6.5,0.75C1.75,4.125,3.25,2.375,5.25,1.5zM8,1c2,0,3.75,0.875,5,2.125c-1.125,1-3.125,1.625-4.125,2C8,3.625,7.5,2.75,6.5,1.125C7,1.125,7.5,1,8,1z M8,0C3.625,0,0,3.625,0,8s3.625,8,8,8s8-3.625,8-8S12.375,0,8,0z"/></symbol><symbol viewBox="0 0 16 16" id="svg_social_menu_icon-facebook"><title>Facebook</title><path d="M9.236,6.064V4.446c0,0.011,0-0.012,0-0.109c0-0.65,0.137-1.043,0.988-1.043c0.789,0,1.512,0.005,1.512,0.005l0.055-2.208c0,0-0.707-0.091-1.664-0.091C7.762,1,6.735,2.458,6.735,4.044c0,1.052,0,2.02,0,2.02H5v2.365h1.735V15h2.501V8.429h2.455l0.113-2.365H9.236z"/></symbol><symbol viewBox="0 0 16 16" id="svg_social_menu_icon-feed"><title>RSS</title><path d="M2,6v2c3.309,0,6,2.691,6,6h2C10,9.582,6.418,6,2,6zM2,2v2c5.514,0,10,4.486,10,10h2C14,7.373,8.627,2,2,2zM3.5,11C2.671,11,2,11.672,2,12.5S2.671,14,3.5,14S5,13.328,5,12.5S4.329,11,3.5,11z"/></symbol><symbol viewBox="0 0 16 16" id="svg_social_menu_icon-flickr"><title>Flickr</title><path d="M11.5,4.75C9.704,4.75,8.25,6.205,8.25,8s1.454,3.25,3.25,3.25S14.75,9.795,14.75,8S13.296,4.75,11.5,4.75zM4.5,4.75C2.705,4.75,1.25,6.205,1.25,8c0,1.795,1.455,3.25,3.25,3.25S7.75,9.795,7.75,8C7.75,6.205,6.295,4.75,4.5,4.75z"/></symbol><symbol viewBox="0 0 16 16" id="svg_social_menu_icon-github"><title>GitHub</title><path d="M8,0C3.582,0,0,3.582,0,8c0,3.535,2.292,6.533,5.471,7.591c0.4,0.072,0.546-0.174,0.546-0.387c0-0.189-0.007-0.693-0.011-1.359c-2.226,0.482-2.695-1.072-2.695-1.072c-0.364-0.926-0.888-1.172-0.888-1.172c-0.727-0.496,0.055-0.486,0.055-0.486c0.803,0.057,1.226,0.824,1.226,0.824c0.713,1.223,1.873,0.871,2.328,0.666c0.073-0.518,0.279-0.869,0.508-1.07c-1.776-0.201-3.644-0.889-3.644-3.954c0-0.873,0.312-1.587,0.824-2.146C3.637,5.232,3.362,4.419,3.797,3.318c0,0,0.672-0.215,2.2,0.82C6.636,3.96,7.32,3.872,8,3.869C8.68,3.872,9.364,3.96,10.003,4.138c1.527-1.035,2.198-0.82,2.198-0.82c0.437,1.101,0.162,1.915,0.08,2.117c0.512,0.559,0.821,1.273,0.821,2.146c0,3.073-1.87,3.75-3.652,3.948c0.287,0.246,0.543,0.734,0.543,1.482c0,1.068-0.01,1.932-0.01,2.193c0,0.215,0.144,0.463,0.55,0.385C13.71,14.529,16,11.533,16,8C16,3.582,12.418,0,8,0z"/></symbol><symbol viewBox="0 0 16 16" id="svg_social_menu_icon-google-plus"><title>Google Plus</title><path d="M5.7,7v1.6h2.6c-0.1,0.6-0.8,1.9-2.6,1.9c-1.6,0-2.9-1.3-2.9-2.9s1.3-2.9,2.9-2.9c1,0,1.5,0.4,1.8,0.6l1.2-1.2c-0.7-0.8-1.8-1.2-3-1.2c-2.4,0-4.6,2.1-4.6,4.6s2.1,4.6,4.6,4.6c2.6,0,4.4-1.8,4.4-4.4C10.1,7.3,10,7,10,7C10,7,5.7,7,5.7,7z M13,7V6h-1v1h-1v1h1v1h1V8h1V7H13z"/></symbol><symbol viewBox="0 0 16 16" id="svg_social_menu_icon-instagram"><title>Instagram</title><path d="M13,1H3C1.896,1,1,1.896,1,3v10c0,1.104,0.896,2,2,2h10c1.104,0,2-0.896,2-2V3C15,1.896,14.104,1,13,1z M8,5c1.656,0,3,1.343,3,3c0,1.656-1.344,3-3,3c-1.657,0-3-1.344-3-3C5,6.343,6.343,5,8,5z M14,13c0,0.553-0.447,1-1,1H3c-0.552,0-1-0.447-1-1V7h2.142C4.058,7.321,4,7.652,4,8c0,2.209,1.791,4,4,4s4-1.791,4-4c0-0.348-0.059-0.679-0.142-1H14V13z M14,4c0,0.552-0.447,1-1,1h-1c-0.553,0-1-0.448-1-1V3c0-0.552,0.447-1,1-1h1c0.553,0,1,0.448,1,1V4z"/></symbol><symbol viewBox="0 0 16 16" id="svg_social_menu_icon-linkedin"><title>LinkedIn</title><path d="M4.724,14H2.152V6.26h2.572V14z M3.438,5.204H3.422C2.559,5.204,2,4.609,2,3.867c0-0.759,0.575-1.337,1.456-1.337c0.879,0,1.421,0.579,1.438,1.337C4.894,4.609,4.335,5.204,3.438,5.204z M14,14h-2.572V9.859c0-1.04-0.37-1.75-1.302-1.75c-0.712,0-1.135,0.478-1.321,0.94C8.738,9.215,8.721,9.447,8.721,9.678V14H6.148c0,0,0.034-7.014,0-7.74h2.573v1.097c0.342-0.527,0.953-1.278,2.316-1.278C12.73,6.079,14,7.185,14,9.562V14z"/></symbol><symbol viewBox="0 0 16 16" id="svg_social_menu_icon-mail"><title>Mail</title><path d="M2,4v1l6,3l6-3V4H2z M2,6.5V12h12V6.5l-6,3L2,6.5z"/></symbol><symbol viewBox="0 0 16 16" id="svg_social_menu_icon-pinterest"><title>Pinterest</title><path d="M8.384,0C3.698,0,1.336,3.358,1.336,6.16c0,1.696,0.642,3.206,2.019,3.766c0.226,0.093,0.428,0.005,0.494-0.245C3.894,9.507,4.003,9.07,4.05,8.89c0.065-0.248,0.041-0.335-0.143-0.552c-0.396-0.468-0.65-1.073-0.65-1.933c0-2.492,1.864-4.723,4.854-4.723c2.647,0,4.103,1.618,4.103,3.779c0,2.843-1.257,5.242-3.126,5.242c-1.031,0-1.803-0.853-1.556-1.897c0.295-1.25,0.871-2.599,0.871-3.5c0-0.807-0.433-1.48-1.33-1.48c-1.054,0-1.902,1.092-1.902,2.553c0,0.931,0.315,1.561,0.315,1.561s-1.079,4.573-1.268,5.373c-0.177,0.749-0.2,1.575-0.172,2.265L5.21,16c0.374-0.591,0.783-1.351,0.993-2.111c0.122-0.439,0.694-2.712,0.694-2.712c0.343,0.654,1.344,1.23,2.409,1.23c3.169,0,5.32-2.891,5.32-6.759C14.626,2.724,12.147,0,8.384,0z"/></symbol><symbol viewBox="0 0 16 16" id="svg_social_menu_icon-tumblr"><title>Tumblr</title><path d="M8.525,1v3.539h3.322v2.197H8.525v3.59c0,0.812,0.043,1.333,0.13,1.564c0.085,0.229,0.246,0.413,0.479,0.551c0.31,0.186,0.663,0.279,1.062,0.279c0.708,0,1.413-0.23,2.115-0.691v2.208c-0.599,0.281-1.141,0.479-1.625,0.593C10.202,14.943,9.678,15,9.114,15c-0.64,0-1.206-0.081-1.698-0.242c-0.492-0.161-0.911-0.393-1.258-0.691c-0.348-0.299-0.588-0.617-0.722-0.954c-0.134-0.337-0.201-0.825-0.201-1.465V6.736H3.688V4.755c0.55-0.179,1.021-0.435,1.413-0.769c0.393-0.333,0.707-0.733,0.944-1.202C6.282,2.317,6.445,1.723,6.535,1H8.525z"/></symbol><symbol viewBox="0 0 16 16" id="svg_social_menu_icon-twitter"><title>Twitter</title><path d="M15,3.627c-0.515,0.229-1.068,0.383-1.649,0.452c0.592-0.355,1.048-0.918,1.262-1.589c-0.554,0.329-1.169,0.568-1.822,0.697c-0.524-0.558-1.271-0.907-2.098-0.907c-1.586,0-2.872,1.286-2.872,2.872c0,0.225,0.026,0.444,0.075,0.654c-2.387-0.12-4.504-1.263-5.921-3.001C1.728,3.229,1.586,3.724,1.586,4.25c0,0.996,0.506,1.875,1.277,2.39C2.393,6.625,1.95,6.496,1.562,6.281c0,0.013,0,0.024,0,0.037c0,1.392,0.989,2.552,2.304,2.816C3.625,9.199,3.372,9.234,3.11,9.234c-0.186,0-0.365-0.02-0.541-0.051c0.366,1.142,1.427,1.971,2.683,1.993c-0.982,0.771-2.222,1.23-3.566,1.23c-0.232,0-0.461-0.014-0.686-0.041c1.271,0.816,2.78,1.291,4.402,1.291c5.284,0,8.174-4.377,8.174-8.172c0-0.124-0.004-0.248-0.01-0.371C14.127,4.708,14.615,4.203,15,3.627z"/></symbol><symbol viewBox="0 0 16 16" id="svg_social_menu_icon-vimeo"><title>Vimeo</title><path d="M12.959,2.001C11.02,1.939,9.704,3.023,9.016,5.257c0.355-0.15,0.701-0.228,1.037-0.228c0.712,0,1.025,0.397,0.942,1.189c-0.042,0.479-0.356,1.178-0.942,2.095C9.465,9.23,9.025,9.689,8.732,9.689c-0.377,0-0.723-0.706-1.037-2.12C7.589,7.154,7.401,6.094,7.129,4.389C6.877,2.81,6.207,2.071,5.117,2.175C4.656,2.217,3.964,2.632,3.043,3.421C2.372,4.023,1.691,4.625,1,5.227l0.659,0.841c0.627-0.436,0.994-0.653,1.099-0.653c0.48,0,0.93,0.747,1.349,2.239c0.376,1.369,0.753,2.737,1.13,4.106C5.8,13.253,6.491,14,7.307,14c1.317,0,2.928-1.227,4.831-3.678c1.841-2.348,2.793-4.196,2.855-5.547C15.076,2.968,14.398,2.043,12.959,2.001z"/></symbol><symbol viewBox="0 0 16 16" id="svg_social_menu_icon-wordpress"><title>WordPress</title><path d="M8,1C4.14,1,1,4.14,1,8c0,3.859,3.14,7,7,7c3.859,0,7-3.141,7-7C15,4.14,11.859,1,8,1zM1.707,8c0-0.913,0.196-1.779,0.545-2.562l3.002,8.226C3.154,12.644,1.707,10.491,1.707,8z M8,14.293c-0.618,0-1.214-0.09-1.778-0.256l1.89-5.487l1.934,5.299c0.013,0.032,0.028,0.061,0.045,0.088C9.436,14.167,8.733,14.293,8,14.293z M8.867,5.049c0.38-0.02,0.721-0.06,0.721-0.06c0.339-0.04,0.299-0.539-0.04-0.519c0,0-1.02,0.08-1.678,0.08c-0.619,0-1.658-0.08-1.658-0.08c-0.339-0.02-0.378,0.499-0.04,0.519c0,0,0.321,0.04,0.66,0.06l0.98,2.687l-1.377,4.13L4.145,5.049c0.378-0.02,0.72-0.06,0.72-0.06C5.203,4.949,5.163,4.45,4.824,4.47c0,0-1.019,0.08-1.677,0.08c-0.118,0-0.257-0.002-0.405-0.007C3.867,2.834,5.801,1.707,8,1.707c1.639,0,3.13,0.626,4.25,1.652c-0.027-0.002-0.054-0.005-0.082-0.005c-0.617,0-1.056,0.538-1.056,1.117c0,0.519,0.299,0.958,0.617,1.477c0.239,0.418,0.519,0.957,0.519,1.735c0,0.539-0.206,1.164-0.479,2.035l-0.628,2.098L8.867,5.049zM13.522,4.98c0.491,0.896,0.771,1.925,0.771,3.02c0,2.321-1.258,4.349-3.129,5.439l1.923-5.558c0.358-0.897,0.479-1.615,0.479-2.254C13.565,5.396,13.55,5.181,13.522,4.98z"/></symbol><symbol viewBox="0 0 16 16" id="svg_social_menu_icon-xing"><title>Xing</title><path d="M12.126 0c-.345 0-.494.217-.618.44 0 0-4.97 8.816-5.135 9.105.01.016 3.28 6.015 3.28 6.015.113.205.29.44.644.44H12.6c.14 0 .25-.052.308-.147.06-.1.06-.23-.005-.357L9.65 9.552c-.003-.004-.003-.01 0-.015L14.76.504c.063-.128.064-.258.004-.357-.06-.095-.168-.147-.307-.147h-2.33zM2.432 3.16c-.14 0-.256.05-.315.144-.06.1-.052.226.013.354l1.56 2.7c.003.006.003.01 0 .014L1.24 10.7c-.065.126-.062.254 0 .353.057.095.16.157.3.157h2.308c.345 0 .51-.232.63-.445l2.49-4.406-1.586-2.767c-.115-.205-.29-.433-.642-.433H2.432z"/></symbol><symbol viewBox="0 0 16 16" id="svg_social_menu_icon-youtube"><title>YouTube</title><path d="M12,3H4C2.343,3,1,4.343,1,6v4c0,1.657,1.343,3,3,3h8c1.656,0,3-1.343,3-3V6C15,4.343,13.656,3,12,3zM6,11V5l5,3L6,11z"/></symbol></svg>