<svg version="1.1" xmlns="http://www.w3.org/2000/svg"><symbol viewBox="0 0 24 24" id="svg_social_menu_icon-amazon"><title>amazon</title><path d="M13.582 8.182c-1.648.185-3.802.308-5.344.984-1.781.769-3.03 2.337-3.03 4.644 0 2.953 1.86 4.429 4.253 4.429 2.02 0 3.125-.477 4.685-2.065.516.747.685 1.109 1.629 1.894a.589.589 0 0 0 .672-.066l.006.006c.567-.505 1.599-1.401 2.18-1.888.231-.188.19-.496.009-.754-.52-.718-1.072-1.303-1.072-2.634V8.305c0-1.876.133-3.599-1.249-4.891C15.23 2.369 13.422 2 12.04 2 9.336 2 6.318 3.01 5.686 6.351c-.068.355.191.542.423.594l2.754.298c.258-.013.445-.266.494-.523.236-1.151 1.2-1.706 2.284-1.706.584 0 1.249.215 1.595.738.398.584.346 1.384.346 2.061v.369zm-.533 5.906c-.451.8-1.169 1.291-1.967 1.291-1.09 0-1.728-.83-1.728-2.061 0-2.42 2.171-2.86 4.227-2.86v.615c.001 1.108.027 2.031-.532 3.015zm7.634 5.251C18.329 21.076 14.917 22 11.979 22c-4.118 0-7.826-1.522-10.632-4.057-.22-.199-.024-.471.241-.317 3.027 1.762 6.771 2.823 10.639 2.823 2.608 0 5.476-.541 8.115-1.66.397-.169.73.262.341.55zm.653 1.704c-.194.163-.379.076-.293-.139.284-.71.92-2.298.619-2.684-.301-.386-1.99-.183-2.749-.092-.23.027-.266-.173-.059-.319 1.348-.946 3.555-.673 3.811-.356.26.32-.066 2.533-1.329 3.59z" fill="#010101"/></symbol><symbol viewBox="0 0 24 24" id="svg_social_menu_icon-behance"><title>behance</title><path d="M7.799 5.698c.589 0 1.12.051 1.606.156.482.102.894.273 1.241.507.344.235.612.546.804.938.188.387.281.871.281 1.443 0 .619-.141 1.137-.421 1.551-.284.413-.7.751-1.255 1.014.756.218 1.317.601 1.689 1.146.374.549.557 1.205.557 1.975 0 .623-.12 1.161-.359 1.612a3.144 3.144 0 0 1-.973 1.114c-.408.288-.876.5-1.399.637A6.144 6.144 0 0 1 7.963 18H2V5.698h5.799m-.35 4.97c.481 0 .878-.114 1.192-.345.311-.228.463-.603.463-1.119 0-.286-.051-.523-.152-.707a1.123 1.123 0 0 0-.416-.427 1.733 1.733 0 0 0-.596-.216 3.616 3.616 0 0 0-.697-.06H4.709v2.874h2.74zm.151 5.237c.267 0 .521-.024.759-.077.243-.053.457-.137.637-.261.182-.12.332-.283.441-.491.11-.206.163-.474.163-.798 0-.633-.18-1.084-.533-1.357-.356-.27-.83-.404-1.413-.404H4.709v3.388H7.6zm8.562-.041c.367.358.897.538 1.583.538.493 0 .92-.125 1.277-.374.354-.248.571-.514.654-.79h2.155c-.347 1.072-.872 1.838-1.589 2.299-.708.463-1.572.693-2.58.693-.701 0-1.332-.113-1.899-.337a4.041 4.041 0 0 1-1.439-.958 4.364 4.364 0 0 1-.904-1.484 5.433 5.433 0 0 1-.32-1.899c0-.666.11-1.288.329-1.863a4.36 4.36 0 0 1 .933-1.492c.406-.42.885-.751 1.444-.994a4.63 4.63 0 0 1 1.857-.363c.754 0 1.414.145 1.98.44a3.941 3.941 0 0 1 1.389 1.181 4.82 4.82 0 0 1 .783 1.69c.16.632.217 1.292.171 1.983h-6.428c-.001.706.237 1.372.604 1.73m2.811-4.68c-.291-.321-.783-.496-1.384-.496-.39 0-.714.066-.973.2a1.972 1.972 0 0 0-.621.491 1.772 1.772 0 0 0-.328.628 2.695 2.695 0 0 0-.111.587h3.98c-.058-.625-.271-1.085-.563-1.41zm-3.916-3.446h4.985V6.524h-4.985v1.214z"/></symbol><symbol viewBox="0 0 24 24" id="svg_social_menu_icon-codepen"><title>codepen</title><path d="M22.016 8.84l-.007-.037c-.005-.025-.008-.048-.015-.072-.003-.015-.01-.028-.013-.042l-.023-.062-.02-.042a.391.391 0 0 0-.03-.057.357.357 0 0 0-.025-.038l-.035-.052-.03-.037c-.015-.017-.028-.032-.043-.045-.01-.012-.022-.023-.035-.035a.442.442 0 0 0-.048-.04l-.037-.03-.015-.012-9.161-6.096a.864.864 0 0 0-.955 0L2.359 8.237l-.015.012-.038.028-.048.04a.638.638 0 0 0-.078.082c-.012.013-.022.023-.03.037-.011.017-.025.035-.035.052a.498.498 0 0 1-.025.038c-.011.022-.021.039-.03.059a.39.39 0 0 1-.02.041 1.184 1.184 0 0 0-.034.106c-.007.023-.011.046-.016.071-.001.014-.005.025-.006.037a.73.73 0 0 0-.009.114v6.093c0 .037.003.075.008.112l.007.038c.005.023.008.047.015.072a.209.209 0 0 0 .013.04c.007.022.013.042.022.063l.02.04a.4.4 0 0 0 .055.096l.035.052.03.037a.603.603 0 0 0 .042.045l.035.035c.015.013.032.028.048.04l.038.03.013.01 9.163 6.095a.858.858 0 0 0 .959.004l9.163-6.095.015-.01c.013-.01.027-.02.037-.03a.534.534 0 0 0 .048-.04c.013-.012.025-.023.035-.035.017-.015.03-.032.043-.045l.03-.037a.678.678 0 0 0 .035-.052l.025-.038a.4.4 0 0 0 .03-.058l.02-.04.023-.063c.003-.013.01-.027.013-.04.007-.025.01-.048.015-.072l.007-.037c.003-.042.007-.079.007-.117V8.954a.625.625 0 0 0-.008-.114zm-9.154-4.376l6.751 4.49-3.016 2.013-3.735-2.492V4.464zm-1.724 0v4.009l-3.735 2.494-3.014-2.013 6.749-4.49zm-7.439 6.098L5.853 12l-2.155 1.438v-2.876zm7.439 8.974l-6.749-4.491 3.015-2.011 3.735 2.492v4.01zM12 14.035L8.953 12 12 9.966 15.047 12 12 14.035zm.862 5.501v-4.009l3.735-2.492 3.016 2.011-6.751 4.49zm7.441-6.098L18.147 12l2.156-1.438v2.876z"/></symbol><symbol viewBox="0 0 24 24" id="svg_social_menu_icon-dribbble"><title>dribbble</title><path d="M12 22C6.486 22 2 17.514 2 12S6.486 2 12 2s10 4.486 10 10-4.486 10-10 10zm8.434-8.631c-.292-.092-2.644-.794-5.32-.365 1.117 3.07 1.572 5.57 1.659 6.09a8.56 8.56 0 0 0 3.661-5.725zm-5.098 6.507c-.127-.749-.623-3.361-1.822-6.477l-.056.019c-4.818 1.679-6.547 5.02-6.701 5.334A8.5 8.5 0 0 0 12 20.555a8.488 8.488 0 0 0 3.336-.679zm-9.682-2.152c.193-.331 2.538-4.213 6.943-5.637.111-.036.224-.07.337-.102a29.017 29.017 0 0 0-.692-1.45c-4.266 1.277-8.405 1.223-8.778 1.216a8.497 8.497 0 0 0 2.19 5.973zm-2.015-7.46c.382.005 3.901.02 7.897-1.041a54.477 54.477 0 0 0-3.167-4.94 8.572 8.572 0 0 0-4.73 5.981zm6.359-6.555a45.7 45.7 0 0 1 3.187 5c3.037-1.138 4.323-2.867 4.477-3.085a8.508 8.508 0 0 0-7.664-1.915zm8.614 2.903c-.18.243-1.612 2.078-4.77 3.367a27.028 27.028 0 0 1 .751 1.678c2.842-.357 5.666.215 5.948.275a8.503 8.503 0 0 0-1.929-5.32z"/></symbol><symbol viewBox="0 0 24 24" id="svg_social_menu_icon-facebook"><title>facebook</title><path d="M20.007 3H3.993A.994.994 0 0 0 3 3.993v16.013c0 .549.445.994.993.994h8.621v-6.971h-2.346v-2.717h2.346V9.31c0-2.325 1.42-3.591 3.494-3.591.993 0 1.847.074 2.096.107v2.43l-1.438.001c-1.128 0-1.346.536-1.346 1.323v1.734h2.69l-.35 2.717h-2.34V21h4.587a.994.994 0 0 0 .993-.993V3.993A.994.994 0 0 0 20.007 3z"/></symbol><symbol viewBox="0 0 24 24" id="svg_social_menu_icon-feed"><title>feed</title><path d="M2 8.667V12c5.515 0 10 4.485 10 10h3.333c0-7.363-5.97-13.333-13.333-13.333zM2 2v3.333c9.19 0 16.667 7.477 16.667 16.667H22C22 10.955 13.045 2 2 2zm2.5 15a2.5 2.5 0 1 0 0 5 2.5 2.5 0 0 0 0-5z"/></symbol><symbol viewBox="0 0 24 24" id="svg_social_menu_icon-flickr"><title>flickr</title><path d="M6.5 7c-2.75 0-5 2.25-5 5s2.25 5 5 5 5-2.25 5-5-2.25-5-5-5zm11 0c-2.75 0-5 2.25-5 5s2.25 5 5 5 5-2.25 5-5-2.25-5-5-5z"/></symbol><symbol viewBox="0 0 24 24" id="svg_social_menu_icon-github"><title>github</title><path d="M12 2C6.477 2 2 6.477 2 12c0 4.419 2.865 8.166 6.839 9.489.5.09.682-.218.682-.484 0-.236-.009-.866-.014-1.699-2.782.602-3.369-1.34-3.369-1.34-.455-1.157-1.11-1.465-1.11-1.465-.909-.62.069-.608.069-.608 1.004.071 1.532 1.03 1.532 1.03.891 1.529 2.341 1.089 2.91.833.091-.647.349-1.086.635-1.337-2.22-.251-4.555-1.111-4.555-4.943 0-1.091.39-1.984 1.03-2.682-.103-.254-.447-1.27.097-2.646 0 0 .84-.269 2.75 1.025A9.548 9.548 0 0 1 12 6.836c.85.004 1.705.114 2.504.336 1.909-1.294 2.748-1.025 2.748-1.025.546 1.376.202 2.394.1 2.646.64.699 1.026 1.591 1.026 2.682 0 3.841-2.337 4.687-4.565 4.935.359.307.679.917.679 1.852 0 1.335-.012 2.415-.012 2.741 0 .269.18.579.688.481A9.997 9.997 0 0 0 22 12c0-5.523-4.477-10-10-10z"/></symbol><symbol viewBox="0 0 24 24" id="svg_social_menu_icon-google-plus"><title>google-plus</title><path d="M8 11h6.61c.06.35.11.7.11 1.16 0 4-2.68 6.84-6.72 6.84-3.87 0-7-3.13-7-7s3.13-7 7-7c1.89 0 3.47.69 4.69 1.83l-1.9 1.83c-.52-.5-1.43-1.08-2.79-1.08-2.39 0-4.34 1.98-4.34 4.42S5.61 16.42 8 16.42c2.77 0 3.81-1.99 3.97-3.02H8V11zm15 0h-2V9h-2v2h-2v2h2v2h2v-2h2"/></symbol><symbol viewBox="0 0 24 24" id="svg_social_menu_icon-instagram"><title>instagram</title><path d="M12 4.622c2.403 0 2.688.009 3.637.052.877.04 1.354.187 1.671.31.42.163.72.358 1.035.673.315.315.51.615.673 1.035.123.317.27.794.31 1.671.043.949.052 1.234.052 3.637s-.009 2.688-.052 3.637c-.04.877-.187 1.354-.31 1.671-.163.42-.358.72-.673 1.035-.315.315-.615.51-1.035.673-.317.123-.794.27-1.671.31-.949.043-1.233.052-3.637.052s-2.688-.009-3.637-.052c-.877-.04-1.354-.187-1.671-.31a2.786 2.786 0 0 1-1.035-.673 2.786 2.786 0 0 1-.673-1.035c-.123-.317-.27-.794-.31-1.671-.043-.949-.052-1.234-.052-3.637s.009-2.688.052-3.637c.04-.877.187-1.354.31-1.671.163-.42.358-.72.673-1.035.315-.315.615-.51 1.035-.673.317-.123.794-.27 1.671-.31.949-.043 1.234-.052 3.637-.052M12 3c-2.444 0-2.751.01-3.711.054-.958.044-1.612.196-2.184.418a4.401 4.401 0 0 0-1.594 1.039c-.5.5-.808 1.002-1.038 1.594-.223.572-.375 1.226-.419 2.184C3.01 9.249 3 9.556 3 12s.01 2.751.054 3.711c.044.958.196 1.612.418 2.185.23.592.538 1.094 1.038 1.594s1.002.808 1.594 1.038c.572.222 1.227.375 2.185.418.96.044 1.267.054 3.711.054s2.751-.01 3.711-.054c.958-.044 1.612-.196 2.185-.418a4.411 4.411 0 0 0 1.594-1.038c.5-.5.808-1.002 1.038-1.594.222-.572.375-1.227.418-2.185.044-.96.054-1.267.054-3.711s-.01-2.751-.054-3.711c-.044-.958-.196-1.612-.418-2.185A4.411 4.411 0 0 0 19.49 4.51c-.5-.5-1.002-.808-1.594-1.038-.572-.222-1.227-.375-2.185-.418C14.751 3.01 14.444 3 12 3zm0 4.378a4.622 4.622 0 1 0 0 9.244 4.622 4.622 0 0 0 0-9.244zM12 15a3 3 0 1 1 0-6 3 3 0 0 1 0 6zm4.804-8.884a1.08 1.08 0 1 0 .001 2.161 1.08 1.08 0 0 0-.001-2.161z"/></symbol><symbol viewBox="0 0 24 24" id="svg_social_menu_icon-linkedin"><title>linkedin</title><path d="M19.7 3H4.3A1.3 1.3 0 0 0 3 4.3v15.4A1.3 1.3 0 0 0 4.3 21h15.4a1.3 1.3 0 0 0 1.3-1.3V4.3A1.3 1.3 0 0 0 19.7 3zM8.339 18.338H5.667v-8.59h2.672v8.59zM7.004 8.574a1.548 1.548 0 1 1-.002-3.096 1.548 1.548 0 0 1 .002 3.096zm11.335 9.764H15.67v-4.177c0-.996-.017-2.278-1.387-2.278-1.389 0-1.601 1.086-1.601 2.206v4.249h-2.667v-8.59h2.559v1.174h.037c.356-.675 1.227-1.387 2.526-1.387 2.703 0 3.203 1.779 3.203 4.092v4.711z"/></symbol><symbol viewBox="0 0 16 16" id="svg_social_menu_icon-mail"><title>mail</title><path d="M2 4v1l6 3 6-3V4H2zm0 2.5V12h12V6.5l-6 3-6-3z"/></symbol><symbol viewBox="0 0 24 24" id="svg_social_menu_icon-pinterest"><title>pinterest</title><path d="M12.289 2C6.617 2 3.606 5.648 3.606 9.622c0 1.846 1.025 4.146 2.666 4.878.25.111.381.063.439-.169.044-.175.267-1.029.365-1.428a.365.365 0 0 0-.091-.362c-.54-.63-.975-1.791-.975-2.873 0-2.777 2.194-5.464 5.933-5.464 3.23 0 5.49 2.108 5.49 5.122 0 3.407-1.794 5.768-4.13 5.768-1.291 0-2.257-1.021-1.948-2.277.372-1.495 1.089-3.112 1.089-4.191 0-.967-.542-1.775-1.663-1.775-1.319 0-2.379 1.309-2.379 3.059 0 1.115.394 1.869.394 1.869s-1.302 5.279-1.54 6.261c-.405 1.666.053 4.368.094 4.604.021.126.167.169.25.063.129-.165 1.699-2.419 2.142-4.051.158-.59.817-2.995.817-2.995.43.784 1.681 1.446 3.013 1.446 3.963 0 6.822-3.494 6.822-7.833C20.394 5.112 16.849 2 12.289 2"/></symbol><symbol viewBox="0 0 24 24" id="svg_social_menu_icon-telegram"><title>telegram</title><path d="M12 2C6.477 2 2 6.477 2 12s4.477 10 10 10 10-4.477 10-10S17.523 2 12 2zm3.08 14.757s-.25.625-.936.325l-2.541-1.949-1.63 1.486s-.127.096-.266.036c0 0-.12-.011-.27-.486-.15-.475-.911-2.972-.911-2.972L6 12.349s-.387-.137-.425-.438c-.037-.3.437-.462.437-.462l10.03-3.934s.824-.362.824.238l-1.786 9.004z"/></symbol><symbol viewBox="0 0 24 24" id="svg_social_menu_icon-tumblr"><title>tumblr</title><path d="M16.749 17.396c-.357.17-1.041.319-1.551.332-1.539.041-1.837-1.081-1.85-1.896V9.847h3.861v-2.91h-3.847V2.039h-2.817c-.046 0-.127.041-.138.144-.165 1.499-.867 4.13-3.783 5.181v2.484h1.945v6.282c0 2.151 1.587 5.206 5.775 5.135 1.413-.024 2.982-.616 3.329-1.126l-.924-2.743z"/></symbol><symbol viewBox="0 0 24 24" id="svg_social_menu_icon-twitter"><title>twitter</title><path d="M22.23 5.924a8.212 8.212 0 0 1-2.357.646 4.115 4.115 0 0 0 1.804-2.27 8.221 8.221 0 0 1-2.606.996 4.103 4.103 0 0 0-6.991 3.742 11.647 11.647 0 0 1-8.457-4.287 4.087 4.087 0 0 0-.556 2.063 4.1 4.1 0 0 0 1.825 3.415 4.09 4.09 0 0 1-1.859-.513v.052a4.104 4.104 0 0 0 3.292 4.023 4.099 4.099 0 0 1-1.853.07 4.11 4.11 0 0 0 3.833 2.85 8.236 8.236 0 0 1-5.096 1.756 8.33 8.33 0 0 1-.979-.057 11.617 11.617 0 0 0 6.29 1.843c7.547 0 11.675-6.252 11.675-11.675 0-.178-.004-.355-.012-.531a8.298 8.298 0 0 0 2.047-2.123z"/></symbol><symbol viewBox="0 0 24 24" id="svg_social_menu_icon-vimeo"><title>vimeo</title><path d="M22.396 7.164c-.093 2.026-1.507 4.799-4.245 8.32C15.322 19.161 12.928 21 10.97 21c-1.214 0-2.24-1.119-3.079-3.359l-1.68-6.159c-.623-2.239-1.29-3.36-2.005-3.36-.156 0-.701.328-1.634.98l-.978-1.261c1.027-.902 2.04-1.805 3.037-2.708C6.001 3.95 7.03 3.327 7.715 3.264c1.619-.156 2.616.951 2.99 3.321.404 2.557.685 4.147.841 4.769.467 2.121.981 3.181 1.542 3.181.435 0 1.09-.688 1.963-2.065.871-1.376 1.338-2.422 1.401-3.142.125-1.187-.343-1.782-1.401-1.782-.498 0-1.012.115-1.541.341 1.023-3.35 2.977-4.977 5.862-4.884 2.139.063 3.148 1.45 3.024 4.161z"/></symbol><symbol viewBox="0 0 24 24" id="svg_social_menu_icon-wordpress"><title>wordpress</title><path d="M12.158 12.786L9.46 20.625a8.984 8.984 0 0 0 5.526-.144.852.852 0 0 1-.065-.124l-2.763-7.571zM3.009 12a8.993 8.993 0 0 0 5.067 8.092L3.788 8.341A8.952 8.952 0 0 0 3.009 12zm15.06-.454c0-1.112-.399-1.881-.741-2.48-.456-.741-.883-1.368-.883-2.109 0-.826.627-1.596 1.51-1.596.04 0 .078.005.116.007A8.963 8.963 0 0 0 12 3.009a8.982 8.982 0 0 0-7.512 4.052c.211.007.41.011.579.011.94 0 2.396-.114 2.396-.114.484-.028.541.684.057.741 0 0-.487.057-1.029.085l3.274 9.739 1.968-5.901-1.401-3.838c-.484-.028-.943-.085-.943-.085-.485-.029-.428-.769.057-.741 0 0 1.484.114 2.368.114.94 0 2.397-.114 2.397-.114.485-.028.542.684.057.741 0 0-.488.057-1.029.085l3.249 9.665.897-2.996c.456-1.169.684-2.137.684-2.907zm1.82-3.86c.039.286.06.593.06.924 0 .912-.171 1.938-.684 3.22l-2.746 7.94a8.984 8.984 0 0 0 4.47-7.771 8.922 8.922 0 0 0-1.1-4.313zM12 22C6.486 22 2 17.514 2 12S6.486 2 12 2s10 4.486 10 10-4.486 10-10 10z"/></symbol><symbol viewBox="0 0 16 16" id="svg_social_menu_icon-xing"><title>xing</title><path d="M12.126 0c-.345 0-.494.217-.618.44 0 0-4.97 8.816-5.135 9.105.01.016 3.28 6.015 3.28 6.015.113.205.29.44.644.44H12.6c.14 0 .25-.052.308-.147.06-.1.06-.23-.005-.357L9.65 9.552c-.003-.004-.003-.01 0-.015L14.76.504c.063-.128.064-.258.004-.357-.06-.095-.168-.147-.307-.147h-2.33zM2.432 3.16c-.14 0-.256.05-.315.144-.06.1-.052.226.013.354l1.56 2.7c.003.006.003.01 0 .014L1.24 10.7c-.065.126-.062.254 0 .353.057.095.16.157.3.157h2.308c.345 0 .51-.232.63-.445l2.49-4.406-1.586-2.767c-.115-.205-.29-.433-.642-.433H2.432z"/></symbol><symbol viewBox="0 0 24 24" id="svg_social_menu_icon-youtube"><title>youtube</title><path d="M21.8 8.001s-.195-1.378-.795-1.985c-.76-.797-1.613-.801-2.004-.847-2.799-.202-6.997-.202-6.997-.202h-.009s-4.198 0-6.997.202c-.39.047-1.242.051-2.003.847-.6.607-.795 1.985-.795 1.985S2 9.62 2 11.238v1.517c0 1.618.2 3.237.2 3.237s.195 1.378.795 1.985c.761.797 1.76.771 2.205.855 1.6.153 6.8.201 6.8.201s4.203-.006 7.001-.209c.391-.047 1.243-.051 2.004-.847.6-.607.795-1.985.795-1.985s.2-1.618.2-3.237v-1.517c0-1.618-.2-3.237-.2-3.237zM9.935 14.594l-.001-5.62 5.404 2.82-5.403 2.8z"/></symbol></svg>