<svg viewBox="0 0 16 16"><title>Dribbble</title><path d="M8 15c-1.625 0-3.125-.5-4.25-1.5C4.875 11.375 7 9.75 9.25 9c1.125 2.5 1.5 4.25 1.625 5.375C10 14.75 9 15 8 15zm4-1.25c-.5-2.625-1.375-4.75-1.5-5 1.625-.25 3-.25 4.5 0-.25 2-1.375 3.875-3 5zM1 7.5c2.625.25 4.375 0 7.25-.875.25.5.5 1 .625 1.375-2.25.75-4.75 2.375-6.125 4.625C1.625 11.375 1 9.75 1 8v-.5zM13.75 4c.75 1 1.125 2.25 1.25 3.625-1.125-.25-3.25-.375-4.875 0-.25-.5-.375-.875-.75-1.375C10.875 5.5 12.5 5 13.75 4zm-8.5-2.5a27.89 27.89 0 0 1 2.5 4.125c-1.125.375-4.25 1-6.5.75.5-2.25 2-4 4-4.875zM8 1c2 0 3.75.875 5 2.125-1.125 1-3.125 1.625-4.125 2C8 3.625 7.5 2.75 6.5 1.125 7 1.125 7.5 1 8 1zm0-1C3.625 0 0 3.625 0 8s3.625 8 8 8 8-3.625 8-8-3.625-8-8-8z"/></svg>