<svg viewBox="0 0 16 16"><title>GitHub</title><path d="M8 0a8 8 0 0 0-2.529 15.591c.4.072.546-.174.546-.387 0-.189-.007-.693-.011-1.359-2.226.482-2.695-1.072-2.695-1.072-.364-.926-.888-1.172-.888-1.172-.727-.496.055-.486.055-.486.803.057 1.226.824 1.226.824.713 1.223 1.873.871 2.328.666.073-.518.279-.869.508-1.07-1.776-.201-3.644-.889-3.644-3.954 0-.873.312-1.587.824-2.146-.083-.203-.358-1.016.077-2.117 0 0 .672-.215 2.2.82A7.643 7.643 0 0 1 8 3.869c.68.003 1.364.091 2.003.269 1.527-1.035 2.198-.82 2.198-.82.437 1.101.162 1.915.08 2.117.512.559.821 1.273.821 2.146 0 3.073-1.87 3.75-3.652 3.948.287.246.543.734.543 1.482 0 1.068-.01 1.932-.01 2.193 0 .215.144.463.55.385A8.001 8.001 0 0 0 8 0z"/></svg>