<svg viewBox="0 0 16 16"><title>Pinterest</title><path d="M8.384 0C3.698 0 1.336 3.358 1.336 6.16c0 1.696.642 3.206 2.019 3.766.226.093.428.005.494-.245.045-.174.154-.611.201-.791.065-.248.041-.335-.143-.552-.396-.468-.65-1.073-.65-1.933 0-2.492 1.864-4.723 4.854-4.723 2.647 0 4.103 1.618 4.103 3.779 0 2.843-1.257 5.242-3.126 5.242-1.031 0-1.803-.853-1.556-1.897.295-1.25.871-2.599.871-3.5 0-.807-.433-1.48-1.33-1.48-1.054 0-1.902 1.092-1.902 2.553 0 .931.315 1.561.315 1.561l-1.268 5.373c-.177.749-.2 1.575-.172 2.265L5.21 16c.374-.591.783-1.351.993-2.111.122-.439.694-2.712.694-2.712.343.654 1.344 1.23 2.409 1.23 3.169 0 5.32-2.891 5.32-6.759C14.626 2.724 12.147 0 8.384 0z"/></svg>