<svg xmlns="http://www.w3.org/2000/svg" viewBox="0 0 24 24"><path d="M22.23 5.924a8.212 8.212 0 0 1-2.357.646 4.115 4.115 0 0 0 1.804-2.27 8.221 8.221 0 0 1-2.606.996 4.103 4.103 0 0 0-6.991 3.742 11.647 11.647 0 0 1-8.457-4.287 4.087 4.087 0 0 0-.556 2.063 4.1 4.1 0 0 0 1.825 3.415 4.09 4.09 0 0 1-1.859-.513v.052a4.104 4.104 0 0 0 3.292 4.023 4.099 4.099 0 0 1-1.853.07 4.11 4.11 0 0 0 3.833 2.85 8.236 8.236 0 0 1-5.096 1.756 8.33 8.33 0 0 1-.979-.057 11.617 11.617 0 0 0 6.29 1.843c7.547 0 11.675-6.252 11.675-11.675 0-.178-.004-.355-.012-.531a8.298 8.298 0 0 0 2.047-2.123z"/></svg>