<svg viewBox="0 0 16 16"><title>Twitter</title><path d="M15 3.627a5.705 5.705 0 0 1-1.649.452 2.879 2.879 0 0 0 1.262-1.589 5.75 5.75 0 0 1-1.822.697 2.872 2.872 0 0 0-4.895 2.619 8.157 8.157 0 0 1-5.921-3.001 2.865 2.865 0 0 0-.389 1.445c0 .996.506 1.875 1.277 2.39a2.869 2.869 0 0 1-1.301-.359v.037c0 1.392.989 2.552 2.304 2.816a2.897 2.897 0 0 1-1.297.049 2.872 2.872 0 0 0 2.683 1.993A5.758 5.758 0 0 1 1 12.365a8.118 8.118 0 0 0 4.402 1.291c5.284 0 8.174-4.377 8.174-8.172 0-.124-.004-.248-.01-.371A5.839 5.839 0 0 0 15 3.627z"/></svg>