<svg><title>Vimeo</title><path d="M12.959 2.001c-1.939-.062-3.255 1.022-3.943 3.256.355-.15.701-.228 1.037-.228.712 0 1.025.397.942 1.189-.042.479-.356 1.178-.942 2.095-.588.917-1.028 1.376-1.321 1.376-.377 0-.723-.706-1.037-2.12-.106-.415-.294-1.475-.566-3.18-.252-1.579-.922-2.318-2.012-2.214-.461.042-1.153.457-2.074 1.246C2.372 4.023 1.691 4.625 1 5.227l.659.841c.627-.436.994-.653 1.099-.653.48 0 .93.747 1.349 2.239l1.13 4.106C5.8 13.253 6.491 14 7.307 14c1.317 0 2.928-1.227 4.831-3.678 1.841-2.348 2.793-4.196 2.855-5.547.083-1.807-.595-2.732-2.034-2.774z"/></svg>