<svg><title>WordPress</title><path d="M8 1C4.14 1 1 4.14 1 8c0 3.859 3.14 7 7 7 3.859 0 7-3.141 7-7 0-3.86-3.141-7-7-7zM1.707 8c0-.913.196-1.779.545-2.562l3.002 8.226A6.293 6.293 0 0 1 1.707 8zM8 14.293c-.618 0-1.214-.09-1.778-.256l1.89-5.487 1.934 5.299a.559.559 0 0 0 .045.088A6.297 6.297 0 0 1 8 14.293zm.867-9.244c.38-.02.721-.06.721-.06.339-.04.299-.539-.04-.519 0 0-1.02.08-1.678.08-.619 0-1.658-.08-1.658-.08-.339-.02-.378.499-.04.519 0 0 .321.04.66.06l.98 2.687-1.377 4.13-2.29-6.817c.378-.02.72-.06.72-.06.338-.04.298-.539-.041-.519 0 0-1.019.08-1.677.08-.118 0-.257-.002-.405-.007A6.283 6.283 0 0 1 8 1.707a6.27 6.27 0 0 1 4.25 1.652c-.027-.002-.054-.005-.082-.005-.617 0-1.056.538-1.056 1.117 0 .519.299.958.617 1.477.239.418.519.957.519 1.735 0 .539-.206 1.164-.479 2.035l-.628 2.098-2.274-6.767zm4.655-.069a6.288 6.288 0 0 1-2.358 8.459l1.923-5.558c.358-.897.479-1.615.479-2.254a4.839 4.839 0 0 0-.044-.647z"/></svg>